# xmcd
# 
# Track frame offsets:
#     150
#     14962
#     27604
#     42912
#     54679
#     68688
#     83058
#     97684
#     113054
#     126974
#     141632
#     155014
#     168255
#     184069
#     197330
#     212979
#     226628
#     242808
#     258651
#     270601
#     287366
#     300199
# 
# Disc length: 4193
# 
# Revision: 1
# Processed by: cddbd v1.5.2PL0 Copyright (c) Steve Scherf et al.
# Submitted via: fre:ac v1.0.31
# 
DISCID=35105f16
DTITLE=Billie Holiday - Jazz Ballads 12 - CD 1
DYEAR=0
DGENRE=Jazz
TTITLE0=Lover Man (Oh Where Can You Be)
TTITLE1=No More
TTITLE2=Don't Explain
TTITLE3=You Better Go Now
TTITLE4=What Is This Thing Called Love
TTITLE5=Baby, I Don't Cry Over You
TTITLE6=I'll Look Around
TTITLE7=You're My Thrill
TTITLE8=Crazy He Calls Me
TTITLE9=Please Tell Me Now
TTITLE10=Somebody's On My M ind
TTITLE11=East Of The Sun
TTITLE12=Blue Moon
TTITLE13=You Go To My Head
TTITLE14=You Turned The Tables On Me
TTITLE15=Easy To Love
TTITLE16=These Foolish Things
TTITLE17=Solitude
TTITLE18=My Man
TTITLE19=Stormy Weather
TTITLE20=Yesterdays
TTITLE21=He's Funny That Way
EXTD=
EXTT0=
EXTT1=
EXTT2=
EXTT3=
EXTT4=
EXTT5=
EXTT6=
EXTT7=
EXTT8=
EXTT9=
EXTT10=
EXTT11=
EXTT12=
EXTT13=
EXTT14=
EXTT15=
EXTT16=
EXTT17=
EXTT18=
EXTT19=
EXTT20=
EXTT21=
PLAYORDER=
